<svg width="124" height="29" viewBox="0 0 124 29" fill="none" xmlns="http://www.w3.org/2000/svg">
    <path d="M0 28.5951V25.0486L10.6639 12.0496V11.896H0.3687V7.14877H17.9386V11.0164L7.92704 23.6943V23.8479H18.3073V28.5951H0Z" fill="#1D1E25"/>
    <path d="M29.1379 29C27.7482 29 26.5097 28.7626 25.4225 28.2879C24.3353 27.8039 23.475 27.0918 22.8416 26.1517C22.2177 25.2022 21.9057 24.0201 21.9057 22.6052C21.9057 21.4137 22.1279 20.4131 22.5722 19.6033C23.0165 18.7935 23.6216 18.1419 24.3873 17.6485C25.1531 17.1552 26.0229 16.7829 26.9966 16.5315C27.9798 16.2802 29.0103 16.1034 30.088 16.001C31.3548 15.8706 32.3758 15.7496 33.151 15.6379C33.9263 15.5169 34.4888 15.3401 34.8386 15.1074C35.1883 14.8747 35.3632 14.5303 35.3632 14.0741V13.9904C35.3632 13.1061 35.0796 12.4219 34.5124 11.9379C33.9546 11.4539 33.1605 11.2118 32.13 11.2118C31.0428 11.2118 30.1778 11.4492 29.535 11.9239C28.8921 12.3893 28.4667 12.9758 28.2587 13.6832L22.6715 13.2364C22.9551 11.9332 23.5129 10.8069 24.3448 9.85749C25.1767 8.89873 26.2497 8.16338 27.5638 7.65142C28.8874 7.13016 30.4189 6.86952 32.1584 6.86952C33.3685 6.86952 34.5266 7.00915 35.6327 7.2884C36.7482 7.56765 37.7362 8.00048 38.5965 8.5869C39.4662 9.17333 40.1516 9.9273 40.6527 10.8488C41.1537 11.761 41.4042 12.8548 41.4042 14.13V28.5951H35.6752V25.6211H35.505C35.1553 26.2913 34.6873 26.8824 34.1012 27.3943C33.515 27.897 32.8107 28.2926 31.9882 28.5811C31.1657 28.8604 30.2156 29 29.1379 29ZM30.8679 24.895C31.7566 24.895 32.5413 24.7228 33.2219 24.3784C33.9026 24.0247 34.4368 23.55 34.8244 22.9543C35.212 22.3585 35.4058 21.6837 35.4058 20.9297V18.6538C35.2167 18.7748 34.9567 18.8865 34.6258 18.9889C34.3044 19.082 33.9404 19.1704 33.5339 19.2542C33.1274 19.3287 32.7209 19.3985 32.3144 19.4637C31.9079 19.5195 31.5392 19.5707 31.2083 19.6172C30.4992 19.7196 29.88 19.8825 29.3506 20.1059C28.8212 20.3293 28.4099 20.6318 28.1169 21.0135C27.8238 21.3858 27.6773 21.8512 27.6773 22.4097C27.6773 23.2195 27.9751 23.8385 28.5707 24.2667C29.1757 24.6856 29.9415 24.895 30.8679 24.895Z" fill="#1D1E25"/>
    <path d="M52.132 0V28.5951H46.091V0H52.132Z" fill="#1D1E25"/>
    <path d="M63.1823 29C61.7926 29 60.5542 28.7626 59.467 28.2879C58.3798 27.8039 57.5195 27.0918 56.8861 26.1517C56.2621 25.2022 55.9501 24.0201 55.9501 22.6052C55.9501 21.4137 56.1723 20.4131 56.6166 19.6033C57.061 18.7935 57.666 18.1419 58.4318 17.6485C59.1975 17.1552 60.0673 16.7829 61.041 16.5315C62.0242 16.2802 63.0547 16.1034 64.1324 16.001C65.3992 15.8706 66.4203 15.7496 67.1955 15.6379C67.9707 15.5169 68.5332 15.3401 68.883 15.1074C69.2328 14.8747 69.4077 14.5303 69.4077 14.0741V13.9904C69.4077 13.1061 69.1241 12.4219 68.5568 11.9379C67.999 11.4539 67.2049 11.2118 66.1745 11.2118C65.0873 11.2118 64.2222 11.4492 63.5794 11.9239C62.9365 12.3893 62.5111 12.9758 62.3031 13.6832L56.7159 13.2364C56.9995 11.9332 57.5573 10.8069 58.3892 9.85749C59.2212 8.89873 60.2942 8.16338 61.6083 7.65142C62.9318 7.13016 64.4633 6.86952 66.2028 6.86952C67.4129 6.86952 68.571 7.00915 69.6771 7.2884C70.7927 7.56765 71.7806 8.00048 72.6409 8.5869C73.5106 9.17333 74.196 9.9273 74.6971 10.8488C75.1981 11.761 75.4487 12.8548 75.4487 14.13V28.5951H69.7196V25.6211H69.5495C69.1997 26.2913 68.7317 26.8824 68.1456 27.3943C67.5594 27.897 66.8551 28.2926 66.0327 28.5811C65.2102 28.8604 64.2601 29 63.1823 29ZM64.9124 24.895C65.801 24.895 66.5857 24.7228 67.2664 24.3784C67.947 24.0247 68.4812 23.55 68.8688 22.9543C69.2564 22.3585 69.4502 21.6837 69.4502 20.9297V18.6538C69.2611 18.7748 69.0012 18.8865 68.6703 18.9889C68.3488 19.082 67.9849 19.1704 67.5784 19.2542C67.1718 19.3287 66.7653 19.3985 66.3588 19.4637C65.9523 19.5195 65.5836 19.5707 65.2527 19.6172C64.5437 19.7196 63.9244 19.8825 63.395 20.1059C62.8656 20.3293 62.4544 20.6318 62.1613 21.0135C61.8682 21.3858 61.7217 21.8512 61.7217 22.4097C61.7217 23.2195 62.0195 23.8385 62.6151 24.2667C63.2201 24.6856 63.9859 24.895 64.9124 24.895Z" fill="#1D1E25"/>
    <path d="M88.1617 28.9442C86.5073 28.9442 85.0089 28.5253 83.6664 27.6875C82.3334 26.8405 81.2746 25.5978 80.4899 23.9596C79.7147 22.312 79.3271 20.2921 79.3271 17.8999C79.3271 15.4425 79.7289 13.3993 80.5325 11.7703C81.336 10.1321 82.4043 8.90804 83.7373 8.09822C85.0798 7.27909 86.5498 6.86952 88.1475 6.86952C89.3671 6.86952 90.3834 7.07431 91.1964 7.48387C92.0189 7.88413 92.6806 8.38678 93.1817 8.99182C93.6922 9.58755 94.0798 10.174 94.3445 10.7511H94.5289V0H100.556V28.5951H94.5998V25.1603H94.3445C94.0609 25.7561 93.6591 26.3471 93.1392 26.9336C92.6286 27.5107 91.9622 27.9901 91.1397 28.3717C90.3266 28.7533 89.334 28.9442 88.1617 28.9442ZM90.0761 24.2109C91.0499 24.2109 91.8723 23.9502 92.5436 23.429C93.2242 22.8984 93.7442 22.1584 94.1034 21.209C94.4721 20.2595 94.6565 19.1472 94.6565 17.8719C94.6565 16.5967 94.4769 15.489 94.1176 14.5489C93.7584 13.6087 93.2384 12.8827 92.5577 12.3707C91.8771 11.8588 91.0499 11.6028 90.0761 11.6028C89.0835 11.6028 88.2468 11.8681 87.5661 12.3987C86.8854 12.9292 86.3702 13.6646 86.0204 14.6047C85.6706 15.5449 85.4957 16.6339 85.4957 17.8719C85.4957 19.1192 85.6706 20.2223 86.0204 21.181C86.3797 22.1305 86.8949 22.8751 87.5661 23.415C88.2468 23.9456 89.0835 24.2109 90.0761 24.2109Z" fill="#1D1E25"/>
    <path d="M111.734 29C110.344 29 109.105 28.7626 108.018 28.2879C106.931 27.8039 106.071 27.0918 105.437 26.1517C104.813 25.2022 104.501 24.0201 104.501 22.6052C104.501 21.4137 104.724 20.4131 105.168 19.6033C105.612 18.7935 106.217 18.1419 106.983 17.6485C107.749 17.1552 108.619 16.7829 109.592 16.5315C110.576 16.2802 111.606 16.1034 112.684 16.001C113.951 15.8706 114.972 15.7496 115.747 15.6379C116.522 15.5169 117.085 15.3401 117.434 15.1074C117.784 14.8747 117.959 14.5303 117.959 14.0741V13.9904C117.959 13.1061 117.675 12.4219 117.108 11.9379C116.55 11.4539 115.756 11.2118 114.726 11.2118C113.639 11.2118 112.774 11.4492 112.131 11.9239C111.488 12.3893 111.062 12.9758 110.854 13.6832L105.267 13.2364C105.551 11.9332 106.109 10.8069 106.941 9.85749C107.773 8.89873 108.846 8.16338 110.16 7.65142C111.483 7.13016 113.015 6.86952 114.754 6.86952C115.964 6.86952 117.122 7.00915 118.228 7.2884C119.344 7.56765 120.332 8.00048 121.192 8.5869C122.062 9.17333 122.747 9.9273 123.248 10.8488C123.749 11.761 124 12.8548 124 14.13V28.5951H118.271V25.6211H118.101C117.751 26.2913 117.283 26.8824 116.697 27.3943C116.111 27.897 115.406 28.2926 114.584 28.5811C113.762 28.8604 112.811 29 111.734 29ZM113.464 24.895C114.352 24.895 115.137 24.7228 115.818 24.3784C116.498 24.0247 117.033 23.55 117.42 22.9543C117.808 22.3585 118.002 21.6837 118.002 20.9297V18.6538C117.812 18.7748 117.552 18.8865 117.222 18.9889C116.9 19.082 116.536 19.1704 116.13 19.2542C115.723 19.3287 115.317 19.3985 114.91 19.4637C114.504 19.5195 114.135 19.5707 113.804 19.6172C113.095 19.7196 112.476 19.8825 111.946 20.1059C111.417 20.3293 111.006 20.6318 110.713 21.0135C110.42 21.3858 110.273 21.8512 110.273 22.4097C110.273 23.2195 110.571 23.8385 111.166 24.2667C111.771 24.6856 112.537 24.895 113.464 24.895Z" fill="#1D1E25"/>
</svg>
